<svg xmlns="http://www.w3.org/2000/svg" viewBox="0 0 370.78 252.46"><defs><style>.cls-1{fill:#c8c1d9;opacity:0.3;}.cls-10,.cls-11,.cls-13,.cls-14,.cls-15,.cls-2,.cls-7{fill:none;}.cls-13,.cls-14,.cls-15,.cls-2,.cls-3{stroke:#283563;}.cls-10,.cls-11,.cls-13,.cls-14,.cls-15,.cls-2,.cls-3,.cls-7{stroke-linecap:round;stroke-linejoin:round;}.cls-2,.cls-3,.cls-7{stroke-width:2.12px;}.cls-12,.cls-3,.cls-8{fill:#fff;}.cls-4{fill:#283563;}.cls-5{fill:#dbcef2;}.cls-6{fill:#6e50c7;}.cls-10,.cls-11,.cls-7{stroke:#fff;}.cls-9{fill:#f5ad48;}.cls-10{stroke-width:1.54px;}.cls-11{stroke-width:1.69px;}.cls-12{font-size:30.47px;font-family:SpartanMB-Bold, SpartanMB Bold;font-weight:700;}.cls-13{stroke-width:1.06px;}.cls-14{stroke-width:1.07px;}.cls-15{stroke-width:1.26px;}</style></defs><g id="Layer_2" data-name="Layer 2"><g id="OBJECTS"><path class="cls-1" d="M39.79,251.35S-25.82,119.68,11.46,51C30.52,15.91,69.69,2.43,104.57.19c34-2.17,63.09,14.42,92.89,28.15,16.48,7.59,31.7,12.53,49.9,13.86,20.46,1.5,41.2.38,61.24,5.55,71.69,18.49,53.91,132.13,43.58,191.47-.7,4.05-1.42,8.11-2.26,12.13Z"/><rect class="cls-2" x="66.85" y="51.64" width="239.32" height="168.93" rx="5.42"/><rect class="cls-3" x="75.51" y="59.24" width="221.99" height="145.11" rx="1.99"/><path class="cls-4" d="M202.75,215.17H170.26a2.58,2.58,0,0,1-2.57-2.57h0a2.58,2.58,0,0,1,2.57-2.57h32.49a2.58,2.58,0,0,1,2.57,2.57h0A2.58,2.58,0,0,1,202.75,215.17Z"/><path class="cls-2" d="M235.7,239.56H223.06a4,4,0,0,1-3.7-2.26l0,0-7.47-16.42H160.35l-6.68,16.42,0,0a4,4,0,0,1-3.7,2.26H137.31a10.14,10.14,0,0,0-10.14,10.14v1.7H245.84v-1.7A10.14,10.14,0,0,0,235.7,239.56Z"/><polygon class="cls-4" points="160.35 220.86 211.87 220.86 218.82 236.13 160.35 220.86"/><path class="cls-5" d="M281.55,75.74H214.62a4.34,4.34,0,0,1-4.33-4.33h0a4.34,4.34,0,0,1,4.33-4.33h66.93a4.34,4.34,0,0,1,4.33,4.33h0A4.34,4.34,0,0,1,281.55,75.74Z"/><path class="cls-5" d="M93,72.83a2.92,2.92,0,1,1-2.91-2.92A2.91,2.91,0,0,1,93,72.83Z"/><path class="cls-5" d="M102.68,72.83a2.92,2.92,0,1,1-2.91-2.92A2.91,2.91,0,0,1,102.68,72.83Z"/><path class="cls-5" d="M112.4,72.83a2.92,2.92,0,1,1-2.91-2.92A2.91,2.91,0,0,1,112.4,72.83Z"/><circle class="cls-6" cx="130.74" cy="123.89" r="37.46" transform="translate(-49.31 128.73) rotate(-45)"/><polyline class="cls-7" points="101.38 103.3 110.36 103.3 118.9 140.05 145.33 140.05 151.62 115.39 114.87 115.39"/><polyline class="cls-7" points="124.61 115.45 126.93 140.05 137.63 140.05 140.18 115.39 125.3 115.39"/><line class="cls-7" x1="115.02" y1="123.39" x2="149.58" y2="123.39"/><line class="cls-7" x1="117.11" y1="132.34" x2="147.29" y2="132.34"/><path class="cls-8" d="M129.22,146.42a2.31,2.31,0,1,1-2.3-2.3A2.3,2.3,0,0,1,129.22,146.42Z"/><path class="cls-7" d="M129.22,146.42a2.31,2.31,0,1,1-2.3-2.3A2.3,2.3,0,0,1,129.22,146.42Z"/><path class="cls-8" d="M140.18,146.42a2.31,2.31,0,1,1-2.3-2.3A2.3,2.3,0,0,1,140.18,146.42Z"/><path class="cls-7" d="M140.18,146.42a2.31,2.31,0,1,1-2.3-2.3A2.3,2.3,0,0,1,140.18,146.42Z"/><polygon class="cls-9" points="107.95 170.45 108.62 172.5 110.77 172.5 109.03 173.76 109.69 175.81 107.95 174.54 106.21 175.81 106.88 173.76 105.14 172.5 107.29 172.5 107.95 170.45"/><polygon class="cls-9" points="117.07 170.45 117.73 172.5 119.89 172.5 118.14 173.76 118.81 175.81 117.07 174.54 115.33 175.81 115.99 173.76 114.25 172.5 116.4 172.5 117.07 170.45"/><polygon class="cls-9" points="126.18 170.45 126.85 172.5 129 172.5 127.26 173.76 127.92 175.81 126.18 174.54 124.44 175.81 125.11 173.76 123.36 172.5 125.52 172.5 126.18 170.45"/><polygon class="cls-9" points="135.3 170.45 135.96 172.5 138.11 172.5 136.37 173.76 137.04 175.81 135.3 174.54 133.56 175.81 134.22 173.76 132.48 172.5 134.63 172.5 135.3 170.45"/><polygon class="cls-5" points="144.41 170.45 145.08 172.5 147.23 172.5 145.49 173.76 146.15 175.81 144.41 174.54 142.67 175.81 143.33 173.76 141.59 172.5 143.75 172.5 144.41 170.45"/><polygon class="cls-5" points="153.53 170.45 154.19 172.5 156.34 172.5 154.6 173.76 155.27 175.81 153.53 174.54 151.78 175.81 152.45 173.76 150.71 172.5 152.86 172.5 153.53 170.45"/><path class="cls-5" d="M156,185.72H105.47a2.23,2.23,0,0,1-2.23-2.22h0a2.23,2.23,0,0,1,2.23-2.22H156a2.23,2.23,0,0,1,2.22,2.22h0A2.23,2.23,0,0,1,156,185.72Z"/><path class="cls-5" d="M156,193.13H105.47a2.23,2.23,0,0,1-2.23-2.22h0a2.23,2.23,0,0,1,2.23-2.23H156a2.23,2.23,0,0,1,2.22,2.23h0A2.23,2.23,0,0,1,156,193.13Z"/><path class="cls-5" d="M277.51,104.56H227a2.23,2.23,0,0,1-2.23-2.22h0a2.23,2.23,0,0,1,2.23-2.22h50.54a2.23,2.23,0,0,1,2.22,2.22h0A2.23,2.23,0,0,1,277.51,104.56Z"/><path class="cls-5" d="M258.09,111.6H227a2.23,2.23,0,0,1-2.23-2.22h0a2.23,2.23,0,0,1,2.23-2.23h31.12a2.23,2.23,0,0,1,2.22,2.23h0A2.23,2.23,0,0,1,258.09,111.6Z"/><circle class="cls-5" cx="205.5" cy="105.86" r="14.35"/><path class="cls-10" d="M208.91,103.39a3.41,3.41,0,1,1-3.41-3.4A3.41,3.41,0,0,1,208.91,103.39Z"/><path class="cls-11" d="M211.65,111.73s0,0,0,0c0-2.43-2.76-4.41-6.16-4.41s-6.15,2-6.15,4.41c0,0,0,0,0,0"/><rect class="cls-5" x="191.16" y="132.11" width="88.58" height="36.28" rx="4.11"/><path class="cls-5" d="M277,178.8h-83a2.77,2.77,0,0,1-2.77-2.77h0a2.77,2.77,0,0,1,2.77-2.77h83a2.77,2.77,0,0,1,2.77,2.77h0A2.77,2.77,0,0,1,277,178.8Z"/><path class="cls-5" d="M277,187.83h-83a2.77,2.77,0,0,1-2.77-2.78h0a2.77,2.77,0,0,1,2.77-2.77h83a2.77,2.77,0,0,1,2.77,2.77h0A2.77,2.77,0,0,1,277,187.83Z"/><circle class="cls-9" cx="155.35" cy="96.44" r="8.12"/><polyline class="cls-11" points="151.37 96.79 155.11 100.47 159.33 92.41"/><path class="cls-9" d="M295.8,42.83l-22.38-3.16a5.82,5.82,0,0,0-6.59,5l-2.77,22.43a5.8,5.8,0,0,0,1.16,4.25l34.7,45.3a5.83,5.83,0,0,0,8.16,1.08l25.15-19.27a5.82,5.82,0,0,0,1.08-8.16L299.6,45.06A5.81,5.81,0,0,0,295.8,42.83Zm-21.28,5.1a2.43,2.43,0,1,1,.46-3.41A2.43,2.43,0,0,1,274.52,47.93Z"/><text class="cls-12" transform="matrix(0.79, -0.61, 0.61, 0.79, 294.01, 98.12)">%</text><line class="cls-7" x1="276.13" y1="68.87" x2="294.32" y2="54.93"/><line class="cls-7" x1="302.86" y1="103.76" x2="321.05" y2="89.82"/><path class="cls-13" d="M273.88,47.72S266.14,32,262,31.86s-3.36,7.56,3,19.11"/><polygon class="cls-9" points="110.62 251.57 104.94 168.08 41.59 168.08 35.91 251.57 110.62 251.57"/><polygon class="cls-4" points="35.91 251.57 41.59 168.07 35.14 166.18 28.12 251.57 35.91 251.57"/><polygon class="cls-4" points="35.14 166.18 99.19 166.18 104.94 168.08 41.59 168.08 35.14 166.18"/><path class="cls-14" d="M85.31,175.91V161c0-11-6.31-20-14.1-20h0c-7.8,0-14.11,8.94-14.11,20v14.93"/><path class="cls-4" d="M83.42,175.91a1.9,1.9,0,1,0,1.89-1.9A1.89,1.89,0,0,0,83.42,175.91Z"/><path class="cls-4" d="M55.2,175.91a1.9,1.9,0,1,0,1.9-1.9A1.9,1.9,0,0,0,55.2,175.91Z"/><polygon class="cls-6" points="336.4 251.57 328.99 142.55 254.35 142.55 246.94 251.57 336.4 251.57"/><polygon class="cls-4" points="345.73 251.57 336.58 140.31 328.99 142.54 336.41 251.57 345.73 251.57"/><polygon class="cls-4" points="336.58 140.31 261.13 140.31 254.35 142.55 328.99 142.55 336.58 140.31"/><path class="cls-15" d="M277.48,151.77V134.19c0-13,7.44-23.51,16.62-23.51h0c9.18,0,16.62,10.52,16.62,23.51v17.58"/><path class="cls-4" d="M279.71,151.77a2.24,2.24,0,1,1-2.23-2.23A2.23,2.23,0,0,1,279.71,151.77Z"/><path class="cls-4" d="M313,151.77a2.23,2.23,0,1,1-2.23-2.23A2.23,2.23,0,0,1,313,151.77Z"/><path class="cls-6" d="M46.48,106.79a13.56,13.56,0,0,0-13.56,13.56c0,.38,0,.77,0,1.16,0,.19,0,.38.07.57s.08.62.14.93c0,0,0,.06,0,.09,1.92,10.37,13.28,22.12,13.28,22.12s11.36-11.75,13.28-22.12c0,0,0-.06,0-.09.06-.31.11-.62.14-.93s.05-.38.07-.57c0-.39.06-.78.06-1.16A13.56,13.56,0,0,0,46.48,106.79Zm0,23.72a9.36,9.36,0,1,1,9.35-9.36A9.36,9.36,0,0,1,46.48,130.51Z"/><line class="cls-2" x1="4.28" y1="251.35" x2="369.72" y2="251.35"/><path class="cls-5" d="M42.94,75.74a4,4,0,0,0-4,4,4,4,0,1,0-8,0,4.1,4.1,0,0,0,.26,1.41c1.41,4.92,7.79,8.53,7.79,8.53s6.37-3.61,7.79-8.53A4.1,4.1,0,0,0,47,79.77,4,4,0,0,0,42.94,75.74Z"/><path class="cls-5" d="M331.86,116.7a2.87,2.87,0,0,0-2.87,2.87,2.87,2.87,0,1,0-5.73,0,2.78,2.78,0,0,0,.19,1c1,3.5,5.54,6.07,5.54,6.07s4.54-2.57,5.55-6.07a3,3,0,0,0,.18-1A2.87,2.87,0,0,0,331.86,116.7Z"/><path class="cls-5" d="M23.09,131.49a2.86,2.86,0,0,0-2.86,2.86,2.87,2.87,0,0,0-5.73,0,2.83,2.83,0,0,0,.19,1c1,3.5,5.54,6.07,5.54,6.07s4.54-2.57,5.54-6.07a2.83,2.83,0,0,0,.19-1A2.86,2.86,0,0,0,23.09,131.49Z"/></g></g></svg>