<svg xmlns="http://www.w3.org/2000/svg" viewBox="0 0 382.37 205.34"><defs><style>.cls-1{fill:#f4ad48;}.cls-2{fill:#6958a6;}.cls-3{fill:#6959a6;}.cls-4{fill:#fff;}</style></defs><g id="Layer_2" data-name="Layer 2"><g id="Layer_1-2" data-name="Layer 1"><path class="cls-1" d="M256,141.5c-9,.27-17.92.09-27.71.09l-10.44-.3H202.19l15.69-10s7.24-5,9.42-6.67c.88-.68,2.92-2.2,4-3.14,13-11.11,23.57-23.89,27.11-41.15,5.23-25.53.74-48.13-20.5-65.45a123.71,123.71,0,0,0-25.2-10.6,101.25,101.25,0,0,0-58.46,0c-13,4-20.58,9.24-20.58,9.24-2.29,2-4,3.52-5.64,5-12.54,11.22-18,25.9-20.32,42-.14,1,1.72,3,3,3.41,7.94,2.31,16,4.39,24,6.32,3.24.78,4.59,2.12,4.51,5.72-.27,12.11-.24,24.24-.06,36.35.06,3.57-1.2,5.78-4.11,7.78-6.71,4.59-13.12,9.62-19.77,14.3a8.42,8.42,0,0,0-4,7.83c.22,13.77.08,27.55.08,41.32v5.61l-.55.06v10.38q75.11-.08,150.2,0V157c0-3.49-.24-7,.06-10.45C261.46,142.56,260,141.39,256,141.5ZM170.7,83.78l-16.15-4c0,7.3-.22,14.16.08,21,.19,4.15-1,7-5.88,8.73V74.14l16,4.12c.35-3.1.64-6,1-8.81.72-5.61,2.13-11.07,8.2-13.07,7-2.3,14-2.35,20.54,1.75,1,.64,1.65,1.88,2.7,3.12C177.1,59.69,174.36,62,170.7,83.78Z"/><path class="cls-2" d="M111.34,189.14c-1.75.17-3,.41-4.31.41-17.78-.06-35.6.5-53.34-.43-18-1-34.28-6.89-45.1-22.49-15.13-21.82-11.49-58,20.75-69.41a28.36,28.36,0,0,0,3.32-1.72,13.61,13.61,0,0,0-2.17-1.79C6.67,82.32,2.77,49.4,21.26,30.23c10.62-11,23.93-16.15,38.81-16.58,19.77-.57,39.56-.17,59.34-.18h14.21c-2.29,2-4,3.52-5.64,5-12.54,11.22-18,25.9-20.32,42-.14,1,1.72,3,3,3.41,7.94,2.31,16,4.39,24,6.32,3.24.77,4.59,2.12,4.51,5.72-.27,12.11-.24,24.23-.06,36.35.06,3.57-1.2,5.78-4.11,7.77-6.71,4.6-13.12,9.63-19.77,14.31a8.4,8.4,0,0,0-4,7.82c.22,13.78.08,27.56.08,41.33ZM97.66,135.22h0c0-5.8-.06-11.61,0-17.41,0-2.61-.68-4-3.64-4-10.61.28-21.26-.07-31.83.75-11.27.88-18.08,8.67-18.49,19.67-.39,10.35,5.68,19.12,16.38,20.41,11.62,1.4,23.48.86,35.23.91.77,0,2.15-2.22,2.2-3.46C97.79,146.5,97.66,140.86,97.66,135.22Zm0-87.29c-10.68,0-20.65-.47-30.55.13A17,17,0,0,0,51.42,64.54c-.35,9.9,4.75,17.3,14.31,18.4s19.2.78,28.82.8c1,0,2.92-1.83,2.94-2.84C97.71,70.14,97.63,59.38,97.63,47.93Z"/><path class="cls-2" d="M261,189.33v-32.4c0-3.49-.24-7,.06-10.45.34-4-1.16-5.16-5.09-5-9,.27-17.92.09-27.71.09,0-5.83-.16-11.38.13-16.91.06-1.12,1.77-2.24,2.87-3.18,13-11.11,23.57-23.89,27.11-41.16,5.23-25.52.74-48.12-20.5-65.44-.19-.16-.17-.57-.38-1.36h15.4c17.29,0,34.59-.37,51.86.09,19.25.53,35.88,7,46.45,24.2,12.47,20.21,5.93,44.3-14.75,55.93a17.36,17.36,0,0,0-2.2,1.86c1.4.68,2.34,1.24,3.35,1.63,17.42,6.74,27.81,19.16,29,37.95,1.21,20.25-6.7,36.21-24.92,46.22a63.66,63.66,0,0,1-30,7.92C295,189.5,278.43,189.33,261,189.33Zm8.2-54.76c0,5.8,0,11.59,0,17.38,0,2.62.85,3.9,3.75,3.86,9.78-.14,19.58.22,29.34-.14,12.33-.45,20.54-8.69,20.83-20.23s-6.71-19.86-19.21-20.9c-10.37-.86-20.85-.42-31.28-.61-3.08-.05-3.44,1.86-3.42,4.25C269.22,123.64,269.2,129.11,269.19,134.57Zm0-86.62c0,11.51-.07,22.42.13,33.33,0,.89,1.82,2.52,2.79,2.51,9.61-.05,19.29.26,28.81-.8,9.28-1,14.89-8.7,14.61-17.78S309.05,48.69,300,48.1C290.08,47.45,280.1,48,269.23,48Z"/><path class="cls-2" d="M19.28,190.17c17.51,8.94,36.28,9.49,55.3,9.45,76.61-.15,153.21,0,229.82-.09,18.46,0,36-3.67,50.84-15.59a57.85,57.85,0,0,0,17.26-66.49,16.42,16.42,0,0,1-1.26-4.16c6.18,6.56,9.21,14.59,10.44,23.28,4.79,33.79-15.94,60.09-49.48,66.64a107.53,107.53,0,0,1-20.25,2q-121.89.21-243.77.08c-16.39,0-31.94-3.41-45.82-12.67-.82-.56-1.65-1.11-2.45-1.7A4.71,4.71,0,0,1,19.28,190.17Z"/><path class="cls-2" d="M197.15,61.18C177,59.61,174.29,62,170.63,83.71l-16.15-4c0,7.3-.22,14.16.08,21,.19,4.15-1,7-5.88,8.72V74.07l16,4.12c.35-3.1.64-6,1-8.81.72-5.61,2.13-11.07,8.2-13.07,7-2.3,14-2.35,20.54,1.75C195.46,58.7,196.1,59.93,197.15,61.18Z"/><path class="cls-3" d="M361.32,34.62c16,17.59,15.11,49.8-1.74,64.21L353,94C368.91,76,371.16,56.18,361.32,34.62Z"/><path class="cls-2" d="M202.12,141.22l15.69-10v10Z"/><path class="cls-4" d="M97.66,135.22c0,5.64.13,11.28-.11,16.9,0,1.24-1.43,3.46-2.2,3.46-11.75-.05-23.61.49-35.23-.91-10.7-1.29-16.77-10.06-16.38-20.41.41-11,7.22-18.79,18.49-19.67,10.57-.82,21.22-.47,31.83-.75,3-.07,3.68,1.36,3.64,4-.09,5.8,0,11.61,0,17.41ZM87.54,123.9c-8.35,0-16.15-.24-23.93.07-5.54.23-9,3.55-9.77,8.29-1,6,.59,9.42,5.33,11.83,1.26-11.7,4.42-14.47,16.56-14.49H87.54Z"/><path class="cls-4" d="M97.63,47.93c0,11.45.08,22.21-.14,33,0,1-1.92,2.85-2.94,2.84-9.62,0-19.31.3-28.82-.8s-14.66-8.5-14.31-18.4A17,17,0,0,1,67.08,48.06C77,47.46,87,47.93,97.63,47.93ZM87.72,62.7l-.34-5.92c-7.23.46-14.14.54-20.93,1.48-3.86.53-5.7,3.91-5.52,7.76.16,3.38,1.48,6.24,5.48,7C68.83,60.24,79.14,63.86,87.72,62.7Z"/><path class="cls-4" d="M269.2,134.57c0-5.46,0-10.93,0-16.39,0-2.39.34-4.3,3.42-4.25,10.43.19,20.91-.25,31.28.61,12.5,1,19.51,9.24,19.21,20.9s-8.5,19.78-20.83,20.23c-9.76.36-19.56,0-29.34.14-2.9,0-3.78-1.24-3.75-3.86C269.23,146.16,269.19,140.37,269.2,134.57Zm15.9,11.13V129.53h26.48l.12-1.51c-9.77-8-21.45-2.48-32.24-4.47V145.7Z"/><path class="cls-4" d="M269.23,48c10.87,0,20.85-.5,30.75.15,9.07.59,15.32,8.1,15.59,17.11S310.24,82,301,83c-9.52,1.06-19.2.75-28.81.8-1,0-2.78-1.62-2.79-2.51C269.16,70.37,269.23,59.46,269.23,48Zm10.18,8.94V73.65h5.3c.17-3.55.33-6.91.51-10.76h19.55C297.81,53.77,288.25,58.69,279.41,56.89Z"/><path class="cls-2" d="M87.54,123.9v5.7H75.73c-12.14,0-15.3,2.79-16.56,14.49-4.74-2.41-6.29-5.83-5.33-11.83.75-4.74,4.23-8.06,9.77-8.29C71.39,123.66,79.19,123.9,87.54,123.9Z"/><path class="cls-2" d="M87.72,62.7c-8.58,1.16-18.89-2.46-21.31,10.35-4-.79-5.32-3.65-5.48-7-.18-3.85,1.66-7.23,5.52-7.76,6.79-.94,13.7-1,20.93-1.48Z"/><path class="cls-2" d="M285.1,145.7h-5.64V123.55c10.79,2,22.47-3.56,32.24,4.47l-.12,1.51H285.1Z"/><path class="cls-2" d="M279.41,56.89c8.84,1.8,18.4-3.12,25.36,6H285.22c-.18,3.85-.34,7.21-.51,10.76h-5.3Z"/></g></g></svg>